<?xml version="1.0" encoding="UTF-8"?><svg xmlns="http://www.w3.org/2000/svg" viewBox="0 0 199.96 70.49"><defs><style>.d{stroke-width:6px;}.d,.e,.f{fill:none;stroke:#353535;stroke-miterlimit:10;}.e{stroke-width:5px;}.f{stroke-width:10px;}</style></defs><g id="a"/><g id="b"><g id="c"><g><line class="e" x1="2.5" y1="0" x2="2.5" y2="70.49"/><line class="e" x1="16.43" y1="0" x2="16.43" y2="70.4"/><line class="f" x1="30.35" y1="0" x2="30.35" y2="70.4"/><line class="e" x1="44.28" y1="0" x2="44.28" y2="70.4"/><line class="f" x1="58.2" y1="0" x2="58.2" y2="70.4"/><line class="e" x1="72.13" y1="0" x2="72.13" y2="70.4"/><line class="f" x1="86.06" y1="0" x2="86.06" y2="70.4"/><line class="d" x1="99.98" y1="0" x2="99.98" y2="70.4"/><line class="d" x1="113.91" y1="0" x2="113.91" y2="70.4"/><line class="f" x1="127.83" y1="0" x2="127.83" y2="70.4"/><line class="e" x1="141.76" y1="0" x2="141.76" y2="70.4"/><line class="f" x1="155.69" y1="0" x2="155.69" y2="70.4"/><line class="e" x1="169.61" y1="0" x2="169.61" y2="70.49"/><line class="e" x1="183.54" y1="0" x2="183.54" y2="70.49"/><line class="e" x1="197.46" y1="0" x2="197.46" y2="70.4"/></g></g></g></svg>