<?xml version="1.0" encoding="UTF-8"?><svg id="a" xmlns="http://www.w3.org/2000/svg" viewBox="0 0 1280 1024"><defs><style>.b{stroke-linejoin:round;}.b,.c,.d,.e{fill:#fff;}.b,.d{stroke-linecap:round;}.b,.d,.e,.f,.g{stroke:#000;}.d,.e,.f{stroke-miterlimit:10;}.f,.g{fill:none;}</style></defs><g><path class="g" d="M588.01,854.57l-14.14,8.16,50.47,29.14,11.37-6.56c3.02-1.74,5.77-2.66,8.25-2.73,2.48-.08,5.03,.64,7.65,2.15,2.66,1.54,3.92,3.02,3.79,4.45-.14,1.43-1.72,3.02-4.74,4.77l-40.19,23.2c-2.98,1.72-5.71,2.62-8.19,2.7-2.48,.08-5.05-.65-7.71-2.19s-3.92-3.01-3.79-4.41,1.71-2.98,4.74-4.73l11.37-6.56-50.47-29.14-14.14,8.16,13.33,8.16,1.69,.98c2.16,1.25,3.26,2.57,3.28,3.96,.02,1.39-1.03,2.7-3.15,3.93-2.53,1.46-5.03,2.16-7.51,2.11-2.48-.05-5.12-.88-7.92-2.5l-.54-.31-19.48-12.11c-3.88-2.4-5.74-4.11-5.58-5.14,.16-1.03,1.73-2.4,4.7-4.12l58.19-33.59c2.98-1.72,5.36-2.62,7.14-2.71,1.78-.09,4.77,.97,8.96,3.18l20.91,11.29,.54,.31c2.84,1.64,4.33,3.15,4.47,4.53,.14,1.38-1.06,2.8-3.59,4.26s-4.8,2.06-7.1,1.95c-2.3-.1-5.12-1.07-8.46-2.89l-14.14-7.7Z"/><path class="g" d="M649.71,820.58c10.96-6.33,22.91-9.69,35.86-10.08,12.94-.39,24.22,2.19,33.83,7.73,9.65,5.57,14.14,12.1,13.46,19.57-.68,7.47-6.5,14.37-17.46,20.7s-22.85,9.65-35.79,10.04c-12.94,.39-24.24-2.2-33.9-7.77-9.61-5.55-14.06-12.06-13.36-19.55,.7-7.49,6.48-14.37,17.35-20.64Zm14.28,8.24c-5.28,3.05-7.89,6.55-7.85,10.51,.04,3.96,2.75,7.49,8.12,10.59,5.41,3.12,11.59,4.73,18.54,4.8,6.95,.08,13.06-1.41,18.34-4.45s7.86-6.58,7.75-10.61c-.11-4.02-2.88-7.6-8.29-10.72s-11.48-4.66-18.33-4.69c-6.86-.03-12.95,1.5-18.27,4.57Z"/><path class="g" d="M809.66,785.04l1.08-.62c2.44-1.41,4.94-2.11,7.51-2.11s5.05,.69,7.44,2.07c2.62,1.51,3.83,2.98,3.65,4.41-.18,1.43-1.8,3.03-4.87,4.8l-6.36,3.67c-2.26,1.3-4.36,2.03-6.33,2.17-1.96,.14-4.43-.23-7.41-1.11-1.26,3.59-3.34,6.98-6.22,10.16s-6.47,6-10.76,8.48c-7.26,4.19-14.77,6.45-22.53,6.76-7.76,.31-14.77-1.34-21.04-4.96-6.77-3.91-9.34-8.49-7.71-13.75,1.62-5.26,7.28-10.69,16.98-16.29,2.17-1.25,4.58-2.51,7.24-3.79,2.66-1.28,5.75-2.64,9.27-4.1l-1.29-.74c-4.06-2.34-8.13-3.56-12.21-3.65-4.08-.09-8.04,.97-11.87,3.18-2.98,1.72-5.67,4.55-8.09,8.5-2.41,3.95-4.7,6.54-6.87,7.79s-4.45,1.86-7,1.89c-2.55,.04-4.84-.53-6.87-1.7-3.65-2.11-3.88-5.33-.68-9.65,3.2-4.32,9.4-9.14,18.61-14.45,9.61-5.55,18.34-8.45,26.18-8.71,7.85-.26,16.19,2.16,25.03,7.27l25.1,14.49Zm-29.43,1.91c-2.75,1.02-5.2,2-7.34,2.95-2.14,.95-4.03,1.89-5.65,2.83-4.96,2.87-8.02,5.59-9.17,8.18-1.15,2.59-.26,4.73,2.67,6.43,2.62,1.51,5.51,2.14,8.69,1.89,3.18-.25,6.46-1.35,9.84-3.3,3.11-1.8,5.59-3.75,7.44-5.86,1.85-2.11,3.16-4.48,3.92-7.11l-10.42-6.02Z"/><path class="g" d="M861.21,771.29c-.27,1.2-.79,2.29-1.56,3.28-.77,.99-1.8,1.86-3.11,2.62-1.94,1.12-3.82,1.61-5.65,1.46-1.83-.14-4.16-1.04-7-2.68l-9-5.2c-2.98-1.72-4.59-3.22-4.84-4.51-.25-1.29,.85-2.64,3.28-4.04,2.66-1.54,6.11-2.04,10.35-1.52,2.39,.24,4.26,.35,5.62,.35,4.19-.13,8.25-.75,12.18-1.88,3.92-1.12,7.76-2.76,11.5-4.92,3.25-1.87,5.21-3.74,5.89-5.59,.68-1.85,0-3.36-2.03-4.53-3.65-2.11-11.39-.56-23.21,4.65-2.57,1.17-4.62,2.07-6.16,2.7-8.93,3.91-16.9,6.05-23.92,6.43-7.01,.38-13.2-.98-18.57-4.08-6.36-3.67-8.97-7.84-7.85-12.5,1.13-4.66,5.95-9.45,14.48-14.37,2.93-1.69,6.18-3.29,9.74-4.8,3.56-1.51,7.47-2.92,11.7-4.22-.18-1.2-.01-2.26,.51-3.18,.52-.92,1.43-1.76,2.74-2.52,1.85-1.07,3.83-1.55,5.95-1.45,2.12,.1,4.33,.82,6.63,2.15l8.32,4.8c1.94,1.12,2.94,2.27,3.01,3.46,.07,1.19-.8,2.3-2.6,3.34s-6.63,1.97-14.34,2.7c-7.71,.73-13.83,2.4-18.34,5-3.52,2.03-5.67,3.94-6.46,5.72-.79,1.78-.17,3.26,1.86,4.43,3.16,1.82,9.34,.7,18.54-3.36,2.61-1.2,4.69-2.13,6.22-2.81,11.68-5.03,20.91-7.79,27.67-8.28,6.77-.49,13.06,.94,18.88,4.3,6.81,3.93,9.56,8.42,8.25,13.48-1.31,5.05-6.59,10.25-15.83,15.59-3.61,2.08-7.32,3.95-11.13,5.61-3.81,1.65-7.72,3.12-11.74,4.39Z"/><path class="g" d="M899.78,682.3l20.64-11.91c3.11-1.8,5.89-2.75,8.32-2.85,2.44-.1,4.96,.6,7.58,2.11s3.91,3.03,3.75,4.47c-.16,1.45-1.77,3.05-4.84,4.82l-20.64,11.91,17.32,10c4.87,2.81,8.95,4.31,12.25,4.49,3.29,.18,6.81-.81,10.55-2.97,3.52-2.03,6.65-5.01,9.4-8.95,2.75-3.93,4.94-6.37,6.56-7.3,1.85-1.07,4.17-1.56,6.97-1.48,2.8,.08,5.23,.72,7.31,1.91,3.47,2.01,3.5,5.65,.07,10.94-3.43,5.29-9.13,10.23-17.12,14.84-4.65,2.68-9.36,4.67-14.14,5.98s-9.36,1.86-13.73,1.68c-3.29-.18-6.52-.82-9.67-1.91-3.16-1.09-7.69-3.35-13.6-6.76l-1.49-.86-17.32-10-6.36,3.67c-3.07,1.77-5.83,2.69-8.29,2.75-2.46,.07-5.02-.67-7.68-2.21s-3.91-2.99-3.75-4.36c.16-1.37,1.79-2.95,4.91-4.75l6.36-3.67-15.83-9.14c-3.11-1.8-4.66-3.43-4.63-4.9,.02-1.47,1.52-3.07,4.5-4.79s5.74-2.58,8.29-2.6c2.55-.01,5.38,.88,8.49,2.68l15.83,9.14Z"/><path class="g" d="M1000.66,660.39c6.18,2.21,12.19,3.07,18.03,2.56,5.84-.51,11.56-2.38,17.15-5.61,5.59-3.23,9.75-7.21,12.48-11.93,2.73-4.73,4.66-7.41,5.78-8.07,1.67-.96,3.65-1.39,5.95-1.29,2.3,.11,4.42,.72,6.36,1.84,4.24,2.45,4.76,6.37,1.56,11.76-3.2,5.39-9.43,10.76-18.67,16.09-10.92,6.3-22.86,9.66-35.82,10.06-12.97,.4-24.28-2.18-33.93-7.75-9.61-5.55-14.06-12.06-13.36-19.55,.7-7.49,6.51-14.38,17.42-20.68,9.74-5.62,20.69-8.63,32.85-9,12.15-.38,22.41,1.84,30.75,6.66,2.66,1.54,3.85,2.96,3.55,4.28-.29,1.32-2.45,3.13-6.46,5.45l-43.64,25.2Zm25.91-27.15c-4.96-1.98-10.18-2.71-15.66-2.21-5.48,.51-10.77,2.23-15.87,5.18-4.92,2.84-7.78,5.76-8.59,8.75-.81,3,.41,6.11,3.65,9.34l36.47-21.05Z"/><path class="g" d="M1089.69,598.05l21.92,12.66,15.97-9.22c3.07-1.77,5.81-2.7,8.22-2.79,2.41-.09,4.93,.62,7.54,2.13,2.66,1.54,3.94,3.01,3.82,4.43-.11,1.42-1.7,3.01-4.77,4.79l-37.82,21.84c-3.11,1.8-5.91,2.74-8.39,2.81-2.48,.08-5.05-.65-7.71-2.19-2.61-1.51-3.84-2.96-3.68-4.36,.17-1.4,1.83-3.01,5.01-4.84l5.17-2.98-32.88-18.98-2.93,1.69c-3.09,1.78-5.85,2.71-8.29,2.8-2.44,.08-4.99-.64-7.66-2.18s-3.94-2.99-3.82-4.36c.11-1.37,1.75-2.96,4.91-4.79l14.41-8.32c1.22-.7,2.43-1.1,3.62-1.19,1.2-.09,2.24,.12,3.15,.64l10.01,5.78c-.36-5.88,.46-10.71,2.47-14.47,2.01-3.76,5.47-7.06,10.39-9.9,4.47-2.58,9.01-4.04,13.63-4.39,4.62-.35,8.63,.45,12.01,2.4,2.62,1.51,3.87,3.28,3.75,5.29-.11,2.02-1.59,3.85-4.43,5.49-2.03,1.17-5.18,2.13-9.44,2.87-4.26,.74-6.93,1.43-8.02,2.05-2.17,1.25-3.74,3.28-4.74,6.09-.99,2.81-1.47,6.55-1.42,11.21Z"/></g><g><path class="e" d="M646.17,494.2l-225.17,130c-23.91,13.81-43.3-.85-43.3-32.74v-124.52c0-31.89,19.39-68.93,43.3-82.74l225.17-130c23.91-13.81,43.3,.85,43.3,32.74v124.52c0,31.89-19.39,68.93-43.3,82.74Z"/><polyline class="c" points="563.66 724.68 390.94 625.37 675.27 252.38 843.91 348.7"/><path d="M463.11,498.38h0c.36,0,.78,.13,1.22,.39,2.08,1.2,3.83,4.59,3.83,7.41v148.45c0,1.29-.42,2.79-1.61,2.79-.36,0-.78-.13-1.22-.39-2.08-1.2-3.83-4.59-3.83-7.41v-148.45c0-1.29,.42-2.79,1.61-2.79m0-1c-1.54,0-2.61,1.42-2.61,3.79v148.45c0,3.19,1.94,6.89,4.33,8.27,.61,.35,1.19,.52,1.72,.52,1.54,0,2.61-1.42,2.61-3.79v-148.45c0-3.19-1.94-6.89-4.33-8.27-.61-.35-1.19-.52-1.72-.52h0Z"/><line class="e" x1="563.66" y1="724.68" x2="390.94" y2="625.37"/><line class="e" x1="849" y1="351.7" x2="676.28" y2="252.38"/><g><g><path class="e" d="M696.15,187.73l-25.71-15.33c-14.86-6.45-48.23,2.34-87.02,24.74-48.91,28.24-95.26,73.62-95.26,98.04,0,21.88,4.4,37.33,4.4,37.33,0,0-4.39,19.93-4.4,31.82-.01,10.07,0,123.2,0,157.8,0,2.16,.59,3.81,1.6,4.86l25.38,15.35"/><path class="e" d="M608.42,212.14c52.61-30.38,95.26-35.73,95.26-11.95,0,24.24-4.4,42.41-4.4,42.41,0,0,4.39,14.86,4.4,26.74,.01,10.05,0,123.2,0,157.8,0,5.52-3.88,12.23-8.66,14.99l-173.2,100c-4.78,2.76-8.66,.53-8.66-4.99,0-34.6-.01-147.73,0-157.8,.02-11.9,4.4-31.82,4.4-31.82,0,0-4.4-15.45-4.4-37.33,0-24.42,46.35-69.8,95.26-98.04Z"/></g><path class="c" d="M710.76,299.77c1.1,.64,1.22,1.6,.27,2.15l-204.38,118c-.96,.55-2.63,.48-3.73-.15l-21.98-12.69c-1.1-.64-1.22-1.6-.27-2.15v188.14l41.13,26.95,195.52-128.81,4.62-191.43h-11.19Z"/><path class="f" d="M488.16,400.6l-7.49,4.32c-.96,.55-.84,1.52,.27,2.15l21.98,12.69c1.1,.64,2.78,.71,3.73,.15l204.38-118c.96-.55,.84-1.52-.27-2.15l-7.08-4.09"/></g><g><g><path class="e" d="M747.11,217.58l-25.71-15.33c-14.86-6.45-48.23,2.34-87.02,24.74-48.91,28.24-95.26,73.62-95.26,98.04,0,21.88,4.4,37.33,4.4,37.33,0,0-4.39,19.93-4.4,31.82-.01,10.07,0,123.2,0,157.8,0,2.16,.59,3.81,1.6,4.86l25.38,15.35"/><path class="e" d="M659.38,241.99c52.61-30.38,95.26-35.73,95.26-11.95,0,24.24-4.4,42.41-4.4,42.41,0,0,4.39,14.86,4.4,26.74,.01,10.05,0,123.2,0,157.8,0,5.52-3.88,12.23-8.66,14.99l-173.2,100c-4.78,2.76-8.66,.53-8.66-4.99,0-34.6-.01-147.73,0-157.8,.02-11.9,4.4-31.82,4.4-31.82,0,0-4.4-15.45-4.4-37.33,0-24.42,46.35-69.8,95.26-98.04Z"/></g><path class="c" d="M761.72,329.62c1.1,.64,1.22,1.6,.27,2.15l-204.38,118c-.96,.55-2.63,.48-3.73-.15l-21.98-12.69c-1.1-.64-1.22-1.6-.27-2.15v188.14l41.13,26.95,195.52-128.81,4.62-191.43h-11.19Z"/><path class="f" d="M539.12,430.45l-7.49,4.32c-.96,.55-.84,1.52,.27,2.15l21.98,12.69c1.1,.64,2.78,.71,3.73,.15l204.38-118c.96-.55,.84-1.52-.27-2.15l-7.08-4.09"/></g><g><path class="b" d="M819.41,593.89l-225.17,130c-23.91,13.81-43.3-.85-43.3-32.74v-124.52c0-31.89,19.39-68.93,43.3-82.74l225.17-130c23.91-13.81,43.3,.85,43.3,32.74v124.52c0,31.89-19.39,68.93-43.3,82.74Z"/><path class="b" d="M659.2,655.39h0c-2.39,1.38-4.33-.08-4.33-3.27v-18.45c0-3.19,1.94-6.89,4.33-8.27h0c2.39-1.38,4.33,.08,4.33,3.27v18.45c0,3.19-1.94,6.89-4.33,8.27Z"/><path class="b" d="M678.25,644.39h0c-2.39,1.38-4.33-.08-4.33-3.27v-18.45c0-3.19,1.94-6.89,4.33-8.27h0c2.39-1.38,4.33,.08,4.33,3.27v18.45c0,3.19-1.94,6.89-4.33,8.27Z"/><path class="b" d="M697.3,633.39h0c-2.39,1.38-4.33-.08-4.33-3.27v-18.45c0-3.19,1.94-6.89,4.33-8.27h0c2.39-1.38,4.33,.08,4.33,3.27v18.45c0,3.19-1.94,6.89-4.33,8.27Z"/><path class="b" d="M716.36,622.39h0c-2.39,1.38-4.33-.08-4.33-3.27v-18.45c0-3.19,1.94-6.89,4.33-8.27h0c2.39-1.38,4.33,.08,4.33,3.27v18.45c0,3.19-1.94,6.89-4.33,8.27Z"/><path class="b" d="M735.41,611.39h0c-2.39,1.38-4.33-.08-4.33-3.27v-18.45c0-3.19,1.94-6.89,4.33-8.27h0c2.39-1.38,4.33,.08,4.33,3.27v18.45c0,3.19-1.94,6.89-4.33,8.27Z"/><path class="b" d="M754.46,600.39h0c-2.39,1.38-4.33-.08-4.33-3.27v-18.45c0-3.19,1.94-6.89,4.33-8.27h0c2.39-1.38,4.33,.08,4.33,3.27v18.45c0,3.19-1.94,6.89-4.33,8.27Z"/><path class="b" d="M659.2,615.39h0c-2.39,1.38-4.33-.08-4.33-3.27v-18.45c0-3.19,1.94-6.89,4.33-8.27h0c2.39-1.38,4.33,.08,4.33,3.27v18.45c0,3.19-1.94,6.89-4.33,8.27Z"/><path class="b" d="M678.25,604.39h0c-2.39,1.38-4.33-.08-4.33-3.27v-18.45c0-3.19,1.94-6.89,4.33-8.27h0c2.39-1.38,4.33,.08,4.33,3.27v18.45c0,3.19-1.94,6.89-4.33,8.27Z"/><path class="b" d="M697.3,593.39h0c-2.39,1.38-4.33-.08-4.33-3.27v-18.45c0-3.19,1.94-6.89,4.33-8.27h0c2.39-1.38,4.33,.08,4.33,3.27v18.45c0,3.19-1.94,6.89-4.33,8.27Z"/><path class="b" d="M716.36,582.39h0c-2.39,1.38-4.33-.08-4.33-3.27v-18.45c0-3.19,1.94-6.89,4.33-8.27h0c2.39-1.38,4.33,.08,4.33,3.27v18.45c0,3.19-1.94,6.89-4.33,8.27Z"/><path class="b" d="M735.41,571.39h0c-2.39,1.38-4.33-.08-4.33-3.27v-18.45c0-3.19,1.94-6.89,4.33-8.27h0c2.39-1.38,4.33,.08,4.33,3.27v18.45c0,3.19-1.94,6.89-4.33,8.27Z"/><path class="b" d="M754.46,560.39h0c-2.39,1.38-4.33-.08-4.33-3.27v-18.45c0-3.19,1.94-6.89,4.33-8.27h0c2.39-1.38,4.33,.08,4.33,3.27v18.45c0,3.19-1.94,6.89-4.33,8.27Z"/></g><g><g><path class="d" d="M393.53,622.97l50.3-28.57c1.1-.63,2.46-.62,3.56,.01l42.02,24.26c1.11,.64,1.79,1.82,1.79,3.1v30.86c0,1.68-1.17,3.13-2.81,3.5l-49.38,10.94"/><path class="d" d="M436.22,666.72l-42.45-24.51c-1.11-.64-1.79-1.82-1.79-3.1v-13.21c0-2.76,2.98-4.48,5.37-3.1l42.45,24.51c1.11,.64,1.79,1.82,1.79,3.1v13.21c0,2.76-2.98,4.48-5.37,3.1Z"/></g><line class="d" x1="446.51" y1="646.4" x2="486.39" y2="623.85"/></g></g><g><path class="g" d="M1116.9,550.48c0,1.7-1.12,3.4-3.37,4.7-4.5,2.6-11.79,2.6-16.29,0-2.25-1.3-3.37-3-3.37-4.7"/><g><ellipse class="g" cx="1107.15" cy="418.85" rx="38.39" ry="22.16"/><path class="g" d="M1068.79,419.46v35.27c.34,5.4,4.08,10.75,11.22,14.87,14.99,8.66,39.3,8.66,54.29,0,7.5-4.33,11.24-10,11.24-15.67v-35.08"/><path class="g" d="M1131.91,484.27c-.87,3.1-3.38,6.08-7.52,8.47-10.49,6.06-27.51,6.06-38,0-4.18-2.42-6.7-5.43-7.55-8.56"/><line class="g" x1="1093.86" y1="550.48" x2="1093.86" y2="495.79"/><line class="g" x1="1116.9" y1="550.48" x2="1116.9" y2="495.79"/><line class="g" x1="1131.91" y1="484.27" x2="1144.92" y2="457.9"/><line class="g" x1="1078.83" y1="484.17" x2="1069.38" y2="457.9"/></g><path class="g" d="M1093.86,547.41s17.51-8.02,23.03-30.83"/><path class="g" d="M1093.86,537.32s17.51-15.2,23.03-38.02"/></g></svg>