<?xml version="1.0" encoding="UTF-8"?><svg xmlns="http://www.w3.org/2000/svg" viewBox="0 0 69.71 69.71"><defs><style>.d{fill:#353535;}</style></defs><g id="a"/><g id="b"><g id="c"><g><path class="d" d="M34.85,0C15.6,0,0,15.6,0,34.85s15.6,34.85,34.85,34.85,34.85-15.6,34.85-34.85S54.1,0,34.85,0Zm0,67.68c-18.1,0-32.82-14.72-32.82-32.82S16.75,2.03,34.85,2.03s32.82,14.72,32.82,32.82-14.72,32.82-32.82,32.82Z"/><g><path class="d" d="M25.34,45.74c-.7,.43-1.32,1.16-1.92,2.04,.38,.84,1.09,1.74,1.68,2.26,.8-.51,1.48-1.46,1.84-2.22-.3-.81-1.06-1.64-1.6-2.08Z"/><path class="d" d="M33.26,49.86c1.07-.55,1.92-1.56,2.69-2.57-.79-.7-1.95-1.6-2.86-1.92l.17,4.49Z"/><path class="d" d="M57.07,40.6v-8.12h-8.54v-2.78h.01l3.02-2.8-3.76-3.49V12.69h-7.69v3.56l-5.9-5.49-2.98,2.77h0l-14.38,13.37,3,2.79,.04-.04v2.81H11.32v8.12H5.43c2.68,13.81,14.84,24.24,29.43,24.24s26.75-10.43,29.43-24.24h-7.22Zm-2.5-6.65l-1.78,1.78-1.78-1.78h3.57Zm0,5.61h-3.57l1.78-1.78,1.78,1.78Zm-4.59-4.59l1.78,1.78-1.78,1.78v-3.57Zm-32.6-1.02l-1.78,1.78-1.78-1.78h3.57Zm1.02,1.02v3.57l-1.78-1.78,1.78-1.78Zm-5.61,3.57v-3.57l1.78,1.78-1.78,1.78Zm2.8-.76l1.78,1.78h-3.57l1.78-1.78Zm-.74,14.46c.18-2.01,.04-7.15-.13-8.89h3c-.27,1.64-.56,6.82-.56,6.82,.29,0,2.04-.14,3-.19v2.41c-.73-.09-4.34-.15-5.3-.15Zm9.96,.83c-1.45-1.19-3.45-3.92-4.27-5.32,1.11-1.64,3.43-3.89,4.75-4.78,1.42,1.01,3.86,3.88,4.52,4.85-.76,1.15-3.65,4.72-5,5.25Zm5.77-24.24h7.29v7.29h-7.29v-7.29Zm4.14,23.33c-1.24,.11-2.66,.14-3.93,.14,.05-.58,.06-8.6,.01-8.95,.93-.03,3.41-.05,4.53,.11,.67,.51,2.53,2.57,3.25,3.64-.86,2.11-2.52,4.01-3.85,5.07Zm9.18,.75c-1.11-.83-3.56-3.65-4.66-5.25,1.32-1.74,3.33-3.91,5.07-5.03,1.06,.54,2.7,1.6,3.34,2.31l-2.11,1.92c-.25-.32-.82-.94-1.17-1.17-.73,.47-1.53,1.33-1.88,2.02,.38,.56,1.25,1.59,1.82,2.04,.28-.15,.66-.42,1.01-.69-.15-.15-.47-.45-.58-.62,.52-.53,1.91-1.67,1.91-1.67l2.03,1.9c-.8,1.49-3.29,3.59-4.77,4.23Zm5.48-.79l.13-8.61,5.02-.35,.13,2.12-2.64-.1v1.75l2.31-.15v2l-2.31-.14v1.57l2.77-.13,.04,2.29-5.45-.26Zm6.21-13.57l-1.78-1.78,1.78-1.78v3.57Z"/></g></g></g></g></svg>