<?xml version="1.0" encoding="UTF-8"?><svg id="a" xmlns="http://www.w3.org/2000/svg" viewBox="0 0 293.77 293.67"><defs><style>.e{fill:none;stroke:#000;stroke-miterlimit:10;stroke-width:2.83px;}</style></defs><g id="b" transform="translate(0 0)"><path id="c" class="e" d="M80.21,141.39c0-5.34,4.33-9.67,9.67-9.67,.02,0,.03,0,.05,0l16.11,.05c5.35,0,9.69,4.34,9.69,9.69h0v60.92c1.81-.54,4.14-1.11,6.69-1.71,3.64-.86,6.22-4.11,6.22-7.85V117.24c0-5.35,4.34-9.69,9.69-9.69h16.14c5.35,0,9.68,4.34,9.69,9.69v70.14s4.04-1.64,7.98-3.3c2.99-1.26,4.93-4.19,4.94-7.44V93.03c0-5.35,4.34-9.68,9.68-9.69h16.14c5.35,0,9.69,4.34,9.69,9.69v68.85c13.99-10.14,28.18-22.34,39.43-37.01,3.32-4.32,4.25-10.02,2.47-15.18-15.6-45.47-58.08-76.25-106.15-76.91-63.27-.85-115.55,50.8-115.55,114.07-.06,20.02,5.16,39.71,15.15,57.06,2.81,4.85,8.18,7.63,13.76,7.13,3.05-.27,6.86-.65,11.38-1.18,4.07-.46,7.15-3.91,7.15-8.01v-60.46"/><path id="d" class="e" d="M79.86,239.09c50.94,37.05,122.27,25.8,159.32-25.13,14.19-19.5,21.83-43,21.82-67.11,0-2.63-.12-5.22-.3-7.81-41.67,62.15-118.62,91.2-180.85,100.06"/></g></svg>