<?xml version="1.0" encoding="UTF-8"?><svg xmlns="http://www.w3.org/2000/svg" viewBox="0 0 1040.85 431.21"><defs><style>.d{fill:none;stroke:#353535;stroke-miterlimit:10;stroke-width:2.83px;}</style></defs><g id="a"/><g id="b"><g id="c"><g><path class="d" d="M5.07,319.17h29.56c2.02,0,3.66,1.64,3.66,3.66v29.56c0,2.02,1.64,3.66,3.66,3.66h29.56c2.02,0,3.66,1.64,3.66,3.66v21.79c0,2.02-1.64,3.66-3.66,3.66H5.07c-2.02,0-3.66,1.64-3.66,3.66v37.33c0,2.02,1.64,3.66,3.66,3.66H116.15c2.02,0,3.66-1.64,3.66-3.66v-74.2c0-2.02-1.64-3.66-3.66-3.66h-29.56c-2.02,0-3.66-1.64-3.66-3.66v-29.56c0-2.02-1.64-3.66-3.66-3.66h-29.56c-2.02,0-3.66-1.64-3.66-3.66v-21.79c0-2.02,1.64-3.66,3.66-3.66H116.15c2.02,0,3.66-1.64,3.66-3.66v-37.33c0-2.02-1.64-3.66-3.66-3.66H5.07c-2.02,0-3.66,1.64-3.66,3.66v74.2c0,2.02,1.64,3.66,3.66,3.66Z"/><rect class="d" x="222.65" y="38.29" width="44.64" height="44.64" rx="3.66" ry="3.66"/><rect class="d" x="222.65" y="112.03" width="44.64" height="81.51" rx="3.66" ry="3.66"/><path class="d" d="M998.44,237.66c-2.02,0-3.66,1.64-3.66,3.66v188.47h44.64V241.32c0-2.02-1.64-3.66-3.66-3.66h-37.33Z"/><path class="d" d="M148.9,86.59v103.3c0,2.02,1.64,3.66,3.66,3.66h37.33c2.02,0,3.66-1.64,3.66-3.66V5.07c0-2.02-1.64-3.66-3.66-3.66h-37.33c-2.02,0-3.66,1.64-3.66,3.66v29.56c0,2.02-1.64,3.66-3.66,3.66h-29.56c-2.02,0-3.66,1.64-3.66,3.66v29.56c0,2.02-1.64,3.66-3.66,3.66h-21.79c-2.02,0-3.66-1.64-3.66-3.66v-29.56c0-2.02-1.64-3.66-3.66-3.66h-29.56c-2.02,0-3.66-1.64-3.66-3.66V5.07c0-2.02-1.64-3.66-3.66-3.66H5.07c-2.02,0-3.66,1.64-3.66,3.66V189.89c0,2.02,1.64,3.66,3.66,3.66H42.4c2.02,0,3.66-1.64,3.66-3.66V86.59c0-2.02,1.64-3.66,3.66-3.66h21.79c2.02,0,3.66,1.64,3.66,3.66v103.3c0,2.02,1.64,3.66,3.66,3.66h37.33c2.02,0,3.66-1.64,3.66-3.66V86.59c0-2.02,1.64-3.66,3.66-3.66h21.79c2.02,0,3.66,1.64,3.66,3.66Z"/><path class="d" d="M465.97,193.55h37.33c2.02,0,3.66-1.64,3.66-3.66V123.46c0-2.02,1.64-3.66,3.66-3.66h29.56c2.02,0,3.66-1.64,3.66-3.66v-37.33c0-2.02-1.64-3.66-3.66-3.66h-29.56c-2.02,0-3.66-1.64-3.66-3.66v-29.56c0-2.02-1.64-3.66-3.66-3.66h-37.33c-2.02,0-3.66,1.64-3.66,3.66v29.56c0,2.02-1.64,3.66-3.66,3.66h-29.56c-2.02,0-3.66,1.64-3.66,3.66v37.33c0,2.02,1.64,3.66,3.66,3.66h29.56c2.02,0,3.66,1.64,3.66,3.66v66.43c0,2.02,1.64,3.66,3.66,3.66Z"/><path class="d" d="M770.94,274.53h-29.56c-2.02,0-3.66,1.64-3.66,3.66v147.95c0,2.02,1.64,3.66,3.66,3.66h37.33c2.02,0,3.66-1.64,3.66-3.66v-66.43c0-2.02,1.64-3.66,3.66-3.66h29.56c2.02,0,3.66-1.64,3.66-3.66v-37.33c0-2.02-1.64-3.66-3.66-3.66h-29.56c-2.02,0-3.66-1.64-3.66-3.66v-21.79c0-2.02,1.64-3.66,3.66-3.66h29.56c2.02,0,3.66-1.64,3.66-3.66v-37.33c0-2.02-1.64-3.66-3.66-3.66h-37.33c-2.02,0-3.66,1.64-3.66,3.66v29.56c0,2.02-1.64,3.66-3.66,3.66Z"/><path class="d" d="M344.69,119.8h21.79c2.02,0,3.66,1.64,3.66,3.66v66.43c0,2.02,1.64,3.66,3.66,3.66h37.33c2.02,0,3.66-1.64,3.66-3.66V115.69c0-2.02-1.64-3.66-3.66-3.66h-29.56c-2.02,0-3.66-1.64-3.66-3.66v-29.56c0-2.02-1.64-3.66-3.66-3.66h-37.33c-2.02,0-3.66,1.64-3.66,3.66v29.56c0,2.02-1.64,3.66-3.66,3.66h-29.56c-2.02,0-3.66,1.64-3.66,3.66v74.2c0,2.02,1.64,3.66,3.66,3.66h37.33c2.02,0,3.66-1.64,3.66-3.66V123.46c0-2.02,1.64-3.66,3.66-3.66Z"/><path class="d" d="M218.99,385.15h-21.79c-2.02,0-3.66-1.64-3.66-3.66v-66.43c0-2.02-1.64-3.66-3.66-3.66h-37.33c-2.02,0-3.66,1.64-3.66,3.66v111.07c0,2.02,1.64,3.66,3.66,3.66h74.2c2.02,0,3.66-1.64,3.66-3.66v-29.56c0-2.02,1.64-3.66,3.66-3.66h29.56c2.02,0,3.66-1.64,3.66-3.66v-74.2c0-2.02-1.64-3.66-3.66-3.66h-37.33c-2.02,0-3.66,1.64-3.66,3.66v66.43c0,2.02-1.64,3.66-3.66,3.66Z"/><path class="d" d="M917.39,385.15h-21.79c-2.02,0-3.66-1.64-3.66-3.66v-66.43c0-2.02-1.64-3.66-3.66-3.66h-37.33c-2.02,0-3.66,1.64-3.66,3.66v111.07c0,2.02,1.64,3.66,3.66,3.66h74.2c2.02,0,3.66-1.64,3.66-3.66v-29.56c0-2.02,1.64-3.66,3.66-3.66h29.56c2.02,0,3.66-1.64,3.66-3.66v-74.2c0-2.02-1.64-3.66-3.66-3.66h-37.33c-2.02,0-3.66,1.64-3.66,3.66v66.43c0,2.02-1.64,3.66-3.66,3.66Z"/><path class="d" d="M344.69,356.05h66.43c2.02,0,3.66-1.64,3.66-3.66v-37.33c0-2.02-1.64-3.66-3.66-3.66h-74.2c-2.02,0-3.66,1.64-3.66,3.66v29.56c0,2.02-1.64,3.66-3.66,3.66h-29.56c-2.02,0-3.66,1.64-3.66,3.66v74.2c0,2.02,1.64,3.66,3.66,3.66h111.07c2.02,0,3.66-1.64,3.66-3.66v-37.33c0-2.02-1.64-3.66-3.66-3.66h-66.43c-2.02,0-3.66-1.64-3.66-3.66v-21.79c0-2.02,1.64-3.66,3.66-3.66Z"/><path class="d" d="M492.17,356.05h66.43c2.02,0,3.66-1.64,3.66-3.66v-37.33c0-2.02-1.64-3.66-3.66-3.66h-74.2c-2.02,0-3.66,1.64-3.66,3.66v29.56c0,2.02-1.64,3.66-3.66,3.66h-29.56c-2.02,0-3.66,1.64-3.66,3.66v74.2c0,2.02,1.64,3.66,3.66,3.66h111.07c2.02,0,3.66-1.64,3.66-3.66v-37.33c0-2.02-1.64-3.66-3.66-3.66h-66.43c-2.02,0-3.66-1.64-3.66-3.66v-21.79c0-2.02,1.64-3.66,3.66-3.66Z"/><path class="d" d="M624.49,385.15h-29.55c-2.02,0-3.66,1.64-3.66,3.66v37.33c0,2.02,1.64,3.66,3.66,3.66h74.2c2.02,0,3.66-1.64,3.66-3.66v-66.43c0-2.02,1.63-3.66,3.65-3.66h29.56c2.02,0,3.66-1.64,3.66-3.66v-37.33c0-2.02-1.64-3.66-3.66-3.66h-74.2c-2.02,0-3.66,1.64-3.66,3.66v66.43c0,2.02-1.64,3.66-3.66,3.66Z"/></g></g></g></svg>