<?xml version="1.0" encoding="utf-8"?>
<!-- Generator: Adobe Illustrator 26.1.0, SVG Export Plug-In . SVG Version: 6.00 Build 0)  -->
<svg version="1.1" id="レイヤー_1" xmlns="http://www.w3.org/2000/svg" xmlns:xlink="http://www.w3.org/1999/xlink" x="0px"
	 y="0px" viewBox="0 0 32 32" style="enable-background:new 0 0 32 32;" xml:space="preserve">
<style type="text/css">
	.st0{fill:#999999;}
</style>
<path class="st0" d="M16,4C9.4,4,4,9.4,4,16s5.4,12,12,12s12-5.4,12-12S22.6,4,16,4z M21.3,12v8c0,0.7-0.6,1.3-1.3,1.3
	s-1.3-0.6-1.3-1.3v-4.8l-5.7,5.7c-0.3,0.3-0.6,0.4-0.9,0.4s-0.7-0.1-0.9-0.4c-0.5-0.5-0.5-1.4,0-1.9l5.7-5.7H12
	c-0.7,0-1.3-0.6-1.3-1.3s0.6-1.3,1.3-1.3h8c0,0,0,0,0,0c0.2,0,0.3,0,0.5,0.1c0.2,0.1,0.3,0.2,0.4,0.3c0.1,0.1,0.2,0.3,0.3,0.4
	C21.3,11.6,21.3,11.8,21.3,12C21.3,12,21.3,12,21.3,12z"/>
</svg>
