<svg width="40" height="40" viewBox="0 0 40 40" fill="none" xmlns="http://www.w3.org/2000/svg">
<path d="M4 0V40" stroke="#333333" stroke-width="0.2"/>
<path d="M40 4L-1.19209e-06 4" stroke="#333333" stroke-width="0.2"/>
<path d="M8 0V40" stroke="#333333" stroke-width="0.2"/>
<path d="M40 8L-1.19209e-06 8" stroke="#333333" stroke-width="0.2"/>
<path d="M12 0V40" stroke="#333333" stroke-width="0.2"/>
<path d="M40 12L-1.19209e-06 12" stroke="#333333" stroke-width="0.2"/>
<path d="M16 0V40" stroke="#333333" stroke-width="0.2"/>
<path d="M40 16L-1.19209e-06 16" stroke="#333333" stroke-width="0.2"/>
<path d="M20 0V40" stroke="#333333" stroke-width="0.4"/>
<path d="M40 20L-1.19209e-06 20" stroke="#333333" stroke-width="0.4"/>
<path d="M24 0V40" stroke="#333333" stroke-width="0.2"/>
<path d="M40 24L-1.19209e-06 24" stroke="#333333" stroke-width="0.2"/>
<path d="M28 0V40" stroke="#333333" stroke-width="0.2"/>
<path d="M40 28L-1.19209e-06 28" stroke="#333333" stroke-width="0.2"/>
<path d="M32 0V40" stroke="#333333" stroke-width="0.2"/>
<path d="M40 32L-1.19209e-06 32" stroke="#333333" stroke-width="0.2"/>
<path d="M36 0V40" stroke="#333333" stroke-width="0.2"/>
<path d="M40 36L-1.19209e-06 36" stroke="#333333" stroke-width="0.2"/>
<rect x="0.2" y="0.2" width="39.6" height="39.6" stroke="#333333" stroke-width="0.4"/>
</svg>
