<?xml version="1.0" encoding="utf-8"?>
<!-- Generator: Adobe Illustrator 26.1.0, SVG Export Plug-In . SVG Version: 6.00 Build 0)  -->
<svg version="1.1" id="レイヤー_1" xmlns="http://www.w3.org/2000/svg" xmlns:xlink="http://www.w3.org/1999/xlink" x="0px"
	 y="0px" viewBox="0 0 24.4 24.4" style="enable-background:new 0 0 24.4 24.4;" xml:space="preserve">
<g id="Instagram">
	<path d="M12.2,2.4c3.2,0,3.6,0,4.8,0.1c0.8,0,1.5,0.2,2.2,0.4c1,0.4,1.9,1.2,2.3,2.3C21.8,5.9,22,6.6,22,7.4
		c0.1,1.3,0.1,1.7,0.1,4.9s0,3.6-0.1,4.8c0,0.8-0.2,1.5-0.4,2.2c-0.4,1-1.2,1.9-2.3,2.3c-0.7,0.3-1.5,0.4-2.2,0.4
		c-1.3,0.1-1.6,0.1-4.8,0.1s-3.6,0-4.9-0.1c-0.8,0-1.5-0.2-2.2-0.4c-1-0.4-1.9-1.2-2.3-2.3c-0.3-0.7-0.4-1.5-0.4-2.2
		c-0.1-1.3-0.1-1.6-0.1-4.8s0-3.6,0.1-4.9c0-0.8,0.2-1.5,0.4-2.2c0.4-1,1.2-1.9,2.3-2.3c0.7-0.3,1.5-0.4,2.2-0.4
		C8.6,2.4,9,2.4,12.2,2.4 M12.2,0.2c-3.3,0-3.7,0-5,0.1c-1,0-2,0.2-2.9,0.6C2.8,1.5,1.5,2.8,0.9,4.4C0.5,5.3,0.3,6.3,0.3,7.3
		c-0.1,1.3-0.1,1.7-0.1,5s0,3.7,0.1,4.9c0,1,0.2,2,0.6,2.9c0.6,1.6,1.9,2.9,3.5,3.5c0.9,0.4,1.9,0.5,2.9,0.6c1.3,0.1,1.7,0.1,5,0.1
		s3.7,0,4.9-0.1c1,0,2-0.2,2.9-0.6c1.6-0.6,2.9-1.9,3.5-3.5c0.3-0.9,0.5-1.9,0.6-2.9c0.1-1.3,0.1-1.7,0.1-5s0-3.7-0.1-5
		c0-1-0.2-2-0.6-2.9c-0.6-1.6-1.9-2.9-3.5-3.5c-0.9-0.3-1.9-0.5-2.9-0.6C15.9,0.2,15.5,0.2,12.2,0.2z M12.2,6.1
		c-3.4,0-6.2,2.8-6.2,6.2s2.8,6.2,6.2,6.2s6.2-2.8,6.2-6.2l0,0C18.4,8.8,15.6,6.1,12.2,6.1z M12.2,16.2c-2.2,0-4-1.8-4-4s1.8-4,4-4
		s4,1.8,4,4S14.4,16.2,12.2,16.2z M18.6,4.4c-0.8,0-1.4,0.6-1.4,1.4c0,0.8,0.6,1.4,1.4,1.4c0.8,0,1.4-0.6,1.4-1.4S19.4,4.4,18.6,4.4
		C18.6,4.4,18.6,4.4,18.6,4.4z" fill='rgba(0,0,0,.87)'/>
</g>
</svg>
